<svg width="28" height="22" viewBox="0 0 28 22" fill="none" xmlns="http://www.w3.org/2000/svg">
<path fill-rule="evenodd" clip-rule="evenodd" d="M19.8667 0.25H11.8667L11.2 2.58333H20.5334L19.8667 0.25ZM3 2.58334C1.34315 2.58334 0 3.92648 0 5.58334V18.25C0 19.9069 1.34315 21.25 3 21.25H25C26.6569 21.25 28 19.9069 28 18.25V5.58334C28 3.92648 26.6569 2.58334 25 2.58334H3ZM20.5334 11.9167C20.5334 14.494 18.444 16.5833 15.8667 16.5833C13.2894 16.5833 11.2 14.494 11.2 11.9167C11.2 9.33934 13.2894 7.25 15.8667 7.25C18.444 7.25 20.5334 9.33934 20.5334 11.9167ZM15.8667 15.65C17.9286 15.65 19.6 13.9785 19.6 11.9167C19.6 9.8548 17.9286 8.18333 15.8667 8.18333C13.8048 8.18333 12.1334 9.8548 12.1334 11.9167C12.1334 13.9785 13.8048 15.65 15.8667 15.65Z" fill="#E7E7E7"/>
</svg>
